<?xml version="1.0" standalone="no"?><!DOCTYPE svg PUBLIC "-//W3C//DTD SVG 1.1//EN" "http://www.w3.org/Graphics/SVG/1.1/DTD/svg11.dtd"><svg t="1601396356402" class="icon" viewBox="0 0 1024 1024" version="1.1" xmlns="http://www.w3.org/2000/svg" p-id="1734" xmlns:xlink="http://www.w3.org/1999/xlink" width="256" height="256"><defs><style type="text/css"></style></defs><path d="M126 479.82l-28-16.22V534l28 16 30 16 118 70 28 16 28 16 178 104 28 16v-70.64l-30-17.38L126 479.82z" fill="#FFB230" p-id="1735"></path><path d="M566 1004l230-132 30-18 194-108-214-138v222l-38 24-202 114v36z" opacity=".2" p-id="1736"></path><path d="M40 394l504 290 150-90 132-76-216-124-56-32-228-130-132 72-154 90z" fill="#FF5542" p-id="1737"></path><path d="M536 717.36V788l30-18 110-62 92-52 28-18 30-18v-64l-282 166-8-4.64zM826 518V300l-132 76v218l132-76z" fill="#D67240" p-id="1738"></path><path d="M326 232V14L194 90v214l132-72z" fill="#63D2E3" p-id="1739"></path><path d="M694 376L194 90l132-76 500 286-132 76z" fill="#FFE571" p-id="1740"></path><path d="M194 304V90l500 286v218L194 304z" fill="#FFB230" p-id="1741"></path><path d="M218 130v160l206 116 24 14 228 130v-152l-66-38-66-40-30-16-8-4-30-18-28-16-24-14-148-88-58-34z" fill="#FF5542" p-id="1742"></path><path d="M424 252v154l24 14v-154l-24-14z" fill="#FFB230" p-id="1743"></path><path d="M448 420l96-52v-48l-30-16-8-4-30-18-28-16v154z" fill="#9E2319" p-id="1744"></path><path d="M98 534v232l28 18V550l-28-16z" fill="#FF5542" p-id="1745"></path><path d="M126 784l30-18V566l-30-16v234z" fill="#9E2319" p-id="1746"></path><path d="M508 772v232l28 18V788l-28-16z" fill="#FF5542" p-id="1747"></path><path d="M536 1022l30-18V770l-30 18v234z" fill="#9E2319" p-id="1748"></path><path d="M768 656v198l28 18V638l-28 18z" fill="#FF5542" p-id="1749"></path><path d="M796 872l30-18V620l-30 18v234z" fill="#9E2319" p-id="1750"></path><path d="M274 636v30l28 18v-32l-28-16z" fill="#CC3A2F" p-id="1751"></path><path d="M302 684l28-16-28-16v32z" fill="#9E2319" p-id="1752"></path><path d="M126 522l380 222v-44.02L126 479.82V522z" fill="#FFE571" p-id="1753"></path><path d="M544 684L40 394v36l58 33.6 28 16.22 380 220.16 30 17.38 8 4.64v-38z" fill="#CC3A2F" p-id="1754"></path><path d="M544 722l282-166v-38l-132 76-150 90v38z" fill="#9E2319" p-id="1755"></path><path d="M218 196v26l60 34 146 86v-26L218 196z" fill="#FFB230" p-id="1756"></path><path d="M218 196l58-32-58-34v66zM218 290l60-34-60-34v68z" fill="#9E2319" p-id="1757"></path><path d="M610 394v-34l66 38v34l-66-38z" fill="#CC3A2F" p-id="1758"></path><path d="M768 762l-92-54 92-52v106z" opacity=".2" p-id="1759"></path><path d="M84 381.9l77.36 44.2 110.54-64L192 318l-108 63.9z" fill="#FDFFCC" p-id="1760"></path><path d="M84 381.9V402l78 44v-19.9l-78-44.2z" fill="#609AA3" p-id="1761"></path><path d="M162 446l110-64v-19.9l-110 64V446z" fill="#344D5C" p-id="1762"></path><path d="M462 289.5v132l30 18v-132l-30-18z" fill="#2CA7C7" p-id="1763"></path><path d="M492 307.5l14-7.5 8 4v122l-22 13.5v-132z" fill="#344D5C" p-id="1764"></path><path d="M462 289.5l14-7.5 30 18-14 7.5-30-18z" fill="#63D2E3" p-id="1765"></path><path d="M500 312v130l30 18v-132l-30-16z" fill="#2CA7C7" p-id="1766"></path><path d="M530 328l14-8 66 40v56l-80 44v-132z" fill="#344D5C" p-id="1767"></path><path d="M500 312l14-8 30 16-14 8-30-16z" fill="#63D2E3" p-id="1768"></path></svg>